<svg width="67" height="67" viewBox="0 0 67 67" fill="none" xmlns="http://www.w3.org/2000/svg">
<path d="M36.0331 9.1716C37.4925 9.1716 38.6788 10.3862 38.6788 11.8805V60.1037C38.6789 60.6396 38.5238 61.1634 38.2331 61.609C37.9424 62.0546 37.5292 62.4019 37.0457 62.6069C36.5622 62.812 36.0301 62.8657 35.5168 62.7611C35.0035 62.6565 34.5321 62.3984 34.1621 62.0195L19.9683 47.4866V24.4976L34.1621 9.96472C34.4069 9.71199 34.6985 9.51171 35.0197 9.37554C35.341 9.23937 35.6854 9.17004 36.0331 9.1716Z" fill="white"/>
<path d="M54.3806 24.4981C52.4101 21.0034 49.576 18.1014 46.163 16.0836L44.292 19.4017C47.1361 21.0832 49.4979 23.5016 51.1399 26.4138C52.782 29.326 53.6464 32.6294 53.6464 35.9921C53.6464 39.3548 52.782 42.6582 51.1399 45.5704C49.4979 48.4826 47.1361 50.901 44.292 52.5825L46.163 55.9006C49.576 53.8828 52.4101 50.9807 54.3806 47.4861C56.351 43.9914 57.3884 40.0273 57.3884 35.9921C57.3884 31.9569 56.351 27.9927 54.3806 24.4981Z" fill="white"/>
<path d="M16.2263 47.4866H12.4842C10.4993 47.4866 8.59564 46.6792 7.19207 45.2421C5.78851 43.805 5 41.8559 5 39.8236V32.1606C5 30.1282 5.78851 28.1791 7.19207 26.742C8.59564 25.3049 10.4993 24.4976 12.4842 24.4976H16.2263V47.4866Z" fill="white"/>
<path d="M47.8992 28.3294C46.5856 25.9996 44.6962 24.0649 42.4209 22.7197L40.5498 26.0378C42.2563 27.0467 43.6733 28.4977 44.6586 30.245C45.6438 31.9924 46.1625 33.9744 46.1625 35.992C46.1625 38.0096 45.6438 39.9917 44.6586 41.739C43.6733 43.4864 42.2563 44.9374 40.5498 45.9463L42.4209 49.2644C44.6962 47.9192 46.5856 45.9845 47.8992 43.6547C49.2128 41.3249 49.9044 38.6822 49.9044 35.992C49.9044 33.3019 49.2128 30.6591 47.8992 28.3294Z" fill="white"/>
<path d="M60.7337 20.2151C58.7169 15.5573 55.8161 11.6894 52.3228 9L50.4077 13.4224C53.3188 15.6636 55.7361 18.8868 57.4168 22.7683C59.0975 26.6498 59.9823 31.0527 59.9823 35.5346C59.9823 40.0164 59.0975 44.4194 57.4168 48.3008C55.7361 52.1823 53.3188 55.4056 50.4077 57.6467L52.3228 62.0691C55.8161 59.3798 58.7169 55.5118 60.7337 50.8541C62.7505 46.1963 64 40.9128 64 35.5346C64 30.1563 62.7505 24.8728 60.7337 20.2151Z" fill="white"/>
</svg>
