<svg width="45" height="45" viewBox="0 0 45 45" fill="none" xmlns="http://www.w3.org/2000/svg">
<path d="M7.5 22.5H13.125C14.1196 22.5 15.0734 22.8951 15.7766 23.5984C16.4799 24.3016 16.875 25.2554 16.875 26.25V35.625C16.875 36.6196 16.4799 37.5734 15.7766 38.2766C15.0734 38.9799 14.1196 39.375 13.125 39.375H7.5C6.50544 39.375 5.55161 38.9799 4.84835 38.2766C4.14509 37.5734 3.75 36.6196 3.75 35.625V22.5C3.75 12.1444 12.1444 3.75 22.5 3.75C32.8556 3.75 41.25 12.1444 41.25 22.5V35.625C41.25 36.6196 40.8549 37.5734 40.1516 38.2766C39.4484 38.9799 38.4946 39.375 37.5 39.375H31.875C30.8804 39.375 29.9266 38.9799 29.2234 38.2766C28.5201 37.5734 28.125 36.6196 28.125 35.625V26.25C28.125 25.2554 28.5201 24.3016 29.2234 23.5984C29.9266 22.8951 30.8804 22.5 31.875 22.5H37.5C37.5 18.5218 35.9196 14.7064 33.1066 11.8934C30.2936 9.08035 26.4782 7.5 22.5 7.5C18.5218 7.5 14.7064 9.08035 11.8934 11.8934C9.08035 14.7064 7.5 18.5218 7.5 22.5Z" fill="white"/>
</svg>
