<svg preserveAspectRatio="none" width="100%" height="100%" overflow="visible" style="display: block;" viewBox="0 0 60 60" fill="none" xmlns="http://www.w3.org/2000/svg">
<g id="lucide:headphone-off">
<path id="Vector" d="M52.5 35H49.1425M22.82 8.675C26.2044 7.53543 29.8114 7.21779 33.3428 7.74834C36.8742 8.27889 40.2287 9.64239 43.1288 11.7261C46.0289 13.8098 48.3914 16.5539 50.0209 19.7315C51.6504 22.9091 52.5002 26.4289 52.5 30V38.3575M5 5L55 55M51.035 51.035C50.0975 51.9727 48.826 52.4997 47.5 52.5H45C43.6739 52.5 42.4021 51.9732 41.4645 51.0355C40.5268 50.0979 40 48.8261 40 47.5V40M7.5 35H15C16.3261 35 17.5979 35.5268 18.5355 36.4645C19.4732 37.4021 20 38.6739 20 40V47.5C20 48.8261 19.4732 50.0979 18.5355 51.0355C17.5979 51.9732 16.3261 52.5 15 52.5H12.5C11.1739 52.5 9.90215 51.9732 8.96447 51.0355C8.02678 50.0979 7.5 48.8261 7.5 47.5V30C7.49997 27.0452 8.08193 24.1194 9.21265 21.3896C10.3434 18.6597 12.0007 16.1793 14.09 14.09" stroke="white" stroke-width="2" stroke-linecap="round" stroke-linejoin="round"/>
</g>
</svg>
