<svg preserveAspectRatio="none" width="100%" height="100%" overflow="visible" style="display: block;" viewBox="0 0 58.6239 58.6257" fill="none" xmlns="http://www.w3.org/2000/svg">
<g id="Group">
<path id="Vector" d="M34.7269 2.78591e-05C36.3601 2.78591e-05 37.6875 1.32747 37.6875 2.96059V55.6645C37.6876 56.2501 37.5141 56.8226 37.1888 57.3096C36.8635 57.7966 36.401 58.1761 35.86 58.4003C35.3189 58.6244 34.7236 58.683 34.1492 58.5687C33.5748 58.4545 33.0472 58.1724 32.6332 57.7582L16.75 41.875V16.75L32.6332 0.86684C32.9072 0.590637 33.2334 0.371745 33.5929 0.222924C33.9524 0.0741028 34.3379 -0.0016683 34.7269 2.78591e-05ZM46.0625 7.55428C49.8817 9.75954 53.0531 12.9312 55.2581 16.7506C57.4631 20.5699 58.6239 24.9024 58.6239 29.3125C58.6239 33.7227 57.4631 38.0551 55.2581 41.8745C53.0531 45.6938 49.8817 48.8655 46.0625 51.0708L43.9688 47.4444C47.1514 45.6067 49.7943 42.9636 51.6318 39.7808C53.4692 36.598 54.4366 32.9876 54.4366 29.3125C54.4366 25.6374 53.4692 22.027 51.6318 18.8442C49.7943 15.6614 47.1514 13.0184 43.9688 11.1807L46.0625 7.55428Z" fill="black"/>
<path id="Vector_2" d="M41.875 14.807C44.4211 16.2772 46.5354 18.3917 48.0054 20.9379C49.4754 23.4841 50.2493 26.3724 50.2493 29.3125C50.2493 32.2526 49.4754 35.1409 48.0054 37.6872C46.5354 40.2334 44.4211 42.3478 41.875 43.818L39.7812 40.1917C41.6908 39.089 43.2766 37.5032 44.3791 35.5935C45.4815 33.6838 46.0619 31.5176 46.0619 29.3125C46.0619 27.1075 45.4815 24.9412 44.3791 23.0316C43.2766 21.1219 41.6908 19.536 39.7812 18.4334L41.875 14.807ZM12.5625 41.875H8.375C6.15381 41.875 4.0236 40.9927 2.45298 39.422C0.882364 37.8514 0 35.7212 0 33.5V25.125C0 22.9038 0.882364 20.7736 2.45298 19.203C4.0236 17.6324 6.15381 16.75 8.375 16.75H12.5625V41.875Z" fill="black"/>
</g>
</svg>
